<?xml version="1.0" encoding="UTF-8" standalone="no"?>
<!-- Created with Inkscape (http://www.inkscape.org/) -->

<svg
   xmlns:dc="http://purl.org/dc/elements/1.1/"
   xmlns:cc="http://creativecommons.org/ns#"
   xmlns:rdf="http://www.w3.org/1999/02/22-rdf-syntax-ns#"
   xmlns:svg="http://www.w3.org/2000/svg"
   xmlns="http://www.w3.org/2000/svg"
   xmlns:sodipodi="http://sodipodi.sourceforge.net/DTD/sodipodi-0.dtd"
   xmlns:inkscape="http://www.inkscape.org/namespaces/inkscape"
   width="5400"
   height="2160"
   id="svg2"
   version="1.1"
   inkscape:version="0.47 r22583"
   sodipodi:docname="maatkit-banner.svg">
  <defs
     id="defs4">
    <inkscape:perspective
       sodipodi:type="inkscape:persp3d"
       inkscape:vp_x="0 : 526.18109 : 1"
       inkscape:vp_y="0 : 1000 : 0"
       inkscape:vp_z="744.09448 : 526.18109 : 1"
       inkscape:persp3d-origin="372.04724 : 350.78739 : 1"
       id="perspective10" />
    <clipPath
       id="clipPath2855"
       clipPathUnits="userSpaceOnUse">
      <path
         id="path2857"
         d="m 0,3602.48 3240,0 0,-3599.99953 -3240,0 L 0,3602.48" />
    </clipPath>
    <inkscape:perspective
       id="perspective2845"
       inkscape:persp3d-origin="0.5 : 0.33333333 : 1"
       inkscape:vp_z="1 : 0.5 : 1"
       inkscape:vp_y="0 : 1000 : 0"
       inkscape:vp_x="0 : 0.5 : 1"
       sodipodi:type="inkscape:persp3d" />
  </defs>
  <sodipodi:namedview
     id="base"
     pagecolor="#881211"
     bordercolor="#666666"
     borderopacity="1.0"
     inkscape:pageopacity="0"
     inkscape:pageshadow="2"
     inkscape:zoom="0.15"
     inkscape:cx="2700"
     inkscape:cy="1002.9075"
     inkscape:document-units="px"
     inkscape:current-layer="layer7"
     showgrid="false"
     inkscape:window-width="1280"
     inkscape:window-height="974"
     inkscape:window-x="0"
     inkscape:window-y="0"
     inkscape:window-maximized="1"
     units="ft" />
  <metadata
     id="metadata7">
    <rdf:RDF>
      <cc:Work
         rdf:about="">
        <dc:format>image/svg+xml</dc:format>
        <dc:type
           rdf:resource="http://purl.org/dc/dcmitype/StillImage" />
        <dc:title></dc:title>
      </cc:Work>
    </rdf:RDF>
  </metadata>
  <g
     inkscape:groupmode="layer"
     id="layer7"
     inkscape:label="Background (#881211)"
     style="display:inline"
     transform="translate(0,1107.675)">
    <g
       style="display:inline"
       id="g2853"
       clip-path="url(#clipPath2855)"
       transform="matrix(1.6666667,0,0,-0.60000008,0,1053.8133)">
      <path
         d="m 0,0 3240,0 0,3602.48 -3240,0 L 0,0 z"
         style="fill:#881211;fill-opacity:1;fill-rule:nonzero;stroke:none"
         id="path2859" />
    </g>
  </g>
  <g
     inkscape:label="Goddess"
     inkscape:groupmode="layer"
     id="layer1"
     style="display:inline"
     transform="translate(0,1107.675)"
     sodipodi:insensitive="true">
    <g
       id="g3243"
       transform="matrix(5.9373582,0,0,5.9373582,-1481.0646,-2164.7628)">
      <g
         id="g3225"
         style="display:inline"
         transform="matrix(0.125,0,0,-0.125,174.64286,629.10078)">
        <path
           d="m 1599.77,2480.66 c 5.21,177.61 28.73,462.31 28.73,462.31 33.93,496.28 112.32,514.57 112.32,514.57 92.92,65.03 163.06,35.07 177.44,27.64 -127.19,-26.72 -195.22,-93.36 -195.22,-93.36 87.65,61.47 219.1,70.25 219.1,70.25 l 0.19,0.53 c 5.23,-8.39 6.88,-16.64 5.91,-24.52 -2.89,-13.32 -14.55,-29.54 -44.34,-47.44 l 19.16,11.77 c -134.48,-20.49 -223.43,-104.26 -223.43,-104.26 56.81,44.36 134.09,61.28 172.72,67.26 l -3.56,-7.12 -7.86,-31.43 c -1.54,-9.72 -2.85,-21.42 -3.88,-35.17 -118.06,-21.3 -181.43,-98.91 -181.43,-98.91 70.25,61.47 182.24,70.25 182.24,70.25 0,0 -1.61,16.66 -1.61,16.66 0.74,-7.72 -0.21,-15.74 -0.91,-23.44 -0.66,-7.31 -1.55,-58.91 -3.11,-59.22 -114.92,-22.53 -176.61,-97.92 -176.61,-97.92 67.32,58.91 166.85,69.42 175.02,70.19 l -3.13,-55.2 c -111.87,-23.63 -171.89,-96.95 -171.89,-96.95 60.92,53.3 148.22,66.98 170.34,69.67 l -3.15,-55.22 c -123.97,-24.21 -190.43,-96.4 -190.43,-96.4 66.24,51.51 160.2,66.01 188.89,69.37 l -3.12,-54.78 c -122.94,-24.05 -188.87,-96.56 -188.87,-96.56 66.02,52 159.95,66.29 187.34,69.45 l -2.82,-49.52 c 0.34,-0.25 0.7,-0.45 1.04,-0.7 l -0.18,-1.64 c -130.2,-23.99 -200.03,-96.62 -200.03,-96.62 69.36,51.66 167.83,66.1 197.49,69.4 l -3.66,-64.29 c -120.51,-24.79 -185.05,-95.85 -185.05,-95.85 63.23,49.78 152.04,65 183.52,68.99 l -2.98,-52.41 -12.85,-2.34 c 0.06,-0.08 0.15,-0.15 0.21,-0.24 0,0 -1.2,-0.08 -3.35,-0.33 l -5.5,-1 -12.89,-1.98 c -36.83,-7.45 -112.74,-31.1 -166.3,-103.79 0,0 57.46,67.91 227.23,86.19 0,0 33.95,681.73 33.95,681.74 0.04,0.86 18.83,6.32 20.89,7.12 6.19,2.39 12.3,5.04 18.24,8.01 25.38,12.67 50.64,33.22 53.98,63.24 0.92,8.32 0.1,16.79 -2.21,24.82 -4.29,14.9 -15.5,24.68 -27.06,34.52 -8.03,6.84 -16.73,12.91 -26,17.93 -16.23,8.78 -34.11,14.18 -52.46,15.98 -34.77,3.39 -69.74,-5.74 -101.06,-20.44 -14.88,-6.99 -30.97,-15.09 -43.63,-25.81 -169.79,-143.67 -159.33,-1005.61 -159.33,-1005.61 l 33.96,2.61 z m 41.78,101.87 c -27.42,0 -27.42,-101.87 -27.42,-101.87 31.34,0 297.75,-7.84 297.75,-7.84 31.35,0 39.19,19.59 39.19,19.59 -125.39,129.3 -309.52,90.12 -309.52,90.12 z m 606.82,-1496.79 -15.66,152.54 28.18,1.26 c -1.73,-42.48 1.88,-98.16 7.39,-152.99 l -19.91,-0.81 z m -65.88,-2.66 -15.62,152.27 30.56,1.37 15.64,-152.4 -30.58,-1.24 z m -54.25,-2.2 -15.59,152.06 18.95,0.84 15.61,-152.13 -18.97,-0.77 z m -64.41,-2.61 -15.57,151.8 29.1,1.3 15.59,-151.92 -29.12,-1.18 z m -51.73,-2.1 c -2.18,62.8 -6.82,119.68 -9.81,151.86 l 10.67,0.47 15.57,-151.66 -16.43,-0.67 z m -238.43,420.36 2.18,61.33 c 69.62,29.87 127.06,84.89 162.28,154.55 16.91,-3.17 33.56,-6.32 49.16,-9.28 -40.98,-96.63 -118.34,-171.98 -213.62,-206.6 z m 8.64,243.88 c 27.28,-4.3 76.22,-13.16 126.65,-22.55 -30.33,-55.65 -76.48,-100.4 -131.96,-127.24 l 5.31,149.79 z m -212.46,-52.03 c -9.5,1.17 -77.32,13.33 -117.33,124.28 0,0 0,84.21 -50.94,100.87 0,0 -85.22,8.81 -103.85,14.69 0,0 -35.24,4.9 -14.67,43.11 0,0 13.52,20.86 -3.85,30.28 -23.32,2.29 -27.91,10.82 -27.02,18.39 22,14.08 70.04,10.19 70.04,10.19 -36.13,15.08 -58.39,12.2 -69.42,8.48 -5.59,9.6 0.14,19.49 3.73,24.24 1.34,4.03 3.12,12.12 -1.89,17.13 0,0 48.98,2.95 41.14,28.42 0,0 -14.7,-23.52 -41.14,-9.81 0,0 -59.74,-9.79 -44.07,25.47 l 44.07,87.18 c 0,0 21.43,40.66 32.19,84.53 72.91,31 121.59,13.37 121.59,13.37 24.94,-10.26 46.25,-13.82 62.77,-14.52 -27.83,4.06 -54.93,18.48 -54.93,18.48 -54.19,33.96 -105.14,5.59 -128.16,-11.65 2.68,12.09 4.44,24.26 4.65,35.81 45.66,14.94 179.53,48.8 235.4,-44.6 l -0.86,-0.52 c 0,0 39.62,-69.25 53.39,-238.61 l -10.84,-365.21 z m -3.27,-110.59 c -79.6,27.21 -144.28,89.63 -177.68,170.03 25.64,6.99 47.01,12.4 59.31,14.66 15.66,-37.85 49.64,-92.4 120.33,-118.35 l -1.96,-66.34 z m -2.66,-89.57 c -114.86,31.92 -207.52,121.99 -248.34,238.81 15.62,4.55 31.16,9.01 45.96,13.19 37.1,-92.79 111.95,-164.29 204.13,-193.1 l -1.75,-58.9 z m -603.545,-203.31 -23.836,-151.47 -24.269,2.29 c 10.851,54.53 19.3,109.77 20.031,151.95 l 28.074,-2.77 z m 35.16,-3.47 30.425,-2.99 -23.8,-151.22 -30.465,2.88 23.84,151.33 z m 65.565,-6.46 18.87,-1.86 -23.77,-151.01 -18.87,1.79 23.77,151.08 z m 54.01,-5.32 29.01,-2.86 -23.72,-150.77 -29.03,2.76 23.74,150.87 z m 64.18,-6.33 11.21,-1.1 c -4.81,-31.98 -12.64,-88.51 -18.32,-151.1 l -16.59,1.57 23.7,150.63 z m 1198.84,-48.18 -3.93,293.85 c 0,0 -109.69,427.06 -423.13,881.55 0,0 -489.5,-34.69 -661.84,-23.78 l -2.63,19.74 c 113.97,-4.4 681.44,36.68 681.44,36.68 39.18,-39.17 164.56,-266.41 164.56,-266.41 -5.24,62.67 67.91,36.56 67.91,36.56 -57.46,60.08 -203.73,242.91 -203.73,242.91 75.75,10.45 49.62,47.02 49.62,47.02 -57.47,67.92 -96.63,-26.12 -96.63,-26.12 -175,-18.28 -645.17,0 -645.17,0 -15.82,-22.85 -19.79,-46.83 -20.71,-60.1 -3.96,-5.04 -16.74,-25.13 -6.7,-65.27 0,0 -5.89,-45.06 -15.68,-68.58 l -76.41,-141.03 c 0,0 -11.75,-25.47 25.48,-39.18 0,0 31.33,5.87 31.33,-13.71 0,0 -20.57,-26.45 1.97,-39.18 0,0 -22.54,-25.47 6.85,-34.29 0,0 20.57,-1.96 10.78,-23.51 0,0 -33.31,-58.77 32.31,-71.5 0,0 115.59,0.98 120.5,-24.48 0,0 17.62,-63.66 21.54,-73.47 0,0 -256.62,-54.85 -334.99,-97.95 0,0 -186.655,-35.2 -206.026,-399.51 -1.067,-19.94 -1.625,-40.87 -1.625,-62.8 0,0 0,-203.74 -31.344,-313.449 0,0 24.703,85.099 44.871,179.749 32.766,-2.7 198.584,-16.21 263.654,-18.7 -4.77,-59.27 -7.17,-121.889 -2.93,-172.799 l 35.26,191.959 c 0,0 97.95,-168.44 94.05,-293.819 0,0 19.58,215.479 -62.71,340.859 0,0 -38.93,89.37 -39.24,132.65 l 0.08,0.56 -261.121,26.48 c 6.399,76.29 41.539,322.39 229.781,365.32 0,0 55.39,17.1 118.24,35.7 45.1,-132.12 150.52,-233.53 280.98,-266.79 l -8.02,-254.69 208.23,-0.06 9.27,261.35 c 113.09,36.59 204.75,125.16 250.4,239.49 34.19,-6.54 57.68,-11.09 57.68,-11.09 237.78,-36.83 201.14,-332.1 185.49,-417.09 l -267.06,-12.64 0.34,-3.91 c -4.54,-44.18 -46.64,-126.99 -46.64,-126.99 -83.67,-200.418 -57.5,-348.711 -57.5,-348.711 2.81,125.402 86.27,300.071 86.27,300.071 l 24.89,-193.599 c 6.98,50.61 8.04,113.258 6.57,172.709 62.15,-0.96 215.57,3.13 258.44,4.32 5.65,-50.69 12.41,-98.4 17.43,-131.56 -11.72,112.56 8.91,264.49 8.91,264.49 0.35,6.43 0.29,12.79 0.16,19.09 l 80.48,3.66 z m -869.79,1083.33 c -0.01,-0.01 -13.71,-4.81 -37.14,-3.8 13.15,-1.92 26.45,-1.55 37.14,3.8 z M 2288.58,927.91 c 1.7,-16.281 4.08,-31.73 7.28,-45.781 0,0 -3.02,17.691 -7.28,45.781 z m -741.06,1552.75 -3.93,101.87 c -148.88,-23.51 -207.65,-97.96 -207.65,-97.96 39.18,-19.58 211.58,-3.91 211.58,-3.91"
           style="fill:#ffffff;fill-opacity:1;fill-rule:nonzero;stroke:none"
           id="path2929" />
      </g>
      <path
         id="path2927"
         style="fill:#ffffff;fill-opacity:1;fill-rule:nonzero;stroke:none;display:inline"
         d="m 1445.65,2265.18 c -30.36,-6.87 -54.85,1.95 -54.85,1.95 -95.99,36.24 -136.15,-49.95 -136.15,-49.95 -8.82,-18.61 24.49,-5.88 24.49,-5.88 73.47,-20.57 106.76,21.55 106.76,21.55 37.99,24.71 51.15,11.54 51.15,11.54 27.81,-10.25 27.81,10.25 27.81,10.25 -1.46,19.02 -19.21,10.54 -19.21,10.54 z m -175.33,-41.15 c 11.76,17.63 31.34,24.49 31.34,24.49 l 0.98,-2.94 c 6.85,-16.65 25.49,-14.69 25.49,-14.69 28.37,-1.96 37.2,25.47 37.2,25.47 l 2.93,-0.98 c 5.88,-3.93 23.52,-6.86 23.52,-6.86 -43.09,-47.02 -121.46,-24.49 -121.46,-24.49"
         transform="matrix(0.125,0,0,-0.125,174.64286,629.10078)" />
    </g>
  </g>
  <g
     inkscape:groupmode="layer"
     id="layer4"
     inkscape:label="Maatkit"
     style="display:inline"
     transform="translate(0,1107.675)"
     sodipodi:insensitive="true">
    <g
       id="g3099"
       transform="matrix(10.803815,0,0,10.803815,-747.8447,-6088.1503)">
      <path
         id="path2913"
         style="fill:#ffffff;fill-opacity:1;fill-rule:nonzero;stroke:none"
         d="m 371.152,777.391 8.426,0 C 534.688,470.941 544.785,451.289 562.324,412.25 l 0.895,0 c 16.191,37.73 27.429,58.352 186.504,365.141 l 8.5,0 31.402,-277.102 C 808.113,336.68 810.879,318.531 832.676,316.52 l 0,-7.559 c -13.18,0.301 -30.02,0.609 -49.125,0.609 -21.68,0 -42.18,-0.308 -57.059,-0.609 l 0,7.559 c 27.949,2.011 25.696,21.441 10.875,156.539 -10,90.312 -13.312,124.222 -14.769,159.339 l -0.801,0 C 700.688,582.898 682.27,548.172 647.102,477.172 627.66,438.75 600.312,386.441 564.156,318.43 l -8.633,0 C 519.711,387.129 492.281,440 473.383,478.102 439.742,547.551 420.004,586.59 400.934,633.328 l -0.797,0 C 398.352,597.73 394.691,562.352 384.984,472.891 370.383,338.051 368.379,318.621 395.816,316.52 l 0,-7.559 c -14.742,0.301 -35.293,0.609 -55.136,0.609 -20.664,0 -36.207,-0.308 -48.059,-0.609 l 0,7.66 c 22.434,2.078 25.875,20.059 45.375,183.668 l 33.156,277.102"
         transform="matrix(0.125,0,0,-0.125,174.64286,629.10078)" />
      <path
         id="path2915"
         style="fill:#ffffff;fill-opacity:1;fill-rule:nonzero;stroke:none"
         d="M 967.004,441.781 C 924.59,336.59 917.5,318.5 942.855,316.621 l 0,-7.66 c -15.187,0.301 -33.136,0.609 -52.003,0.609 -22.247,0 -38.161,-0.308 -48.7,-0.609 l 0,7.66 c 18.309,1.641 27.02,19.68 94.356,184.27 l 114.262,280.449 9.24,0 110.65,-280.86 c 65.01,-163.8 72.73,-181.781 90.54,-183.859 l 0,-7.66 c -9.57,0.301 -25.08,0.609 -47.59,0.609 -20.54,0 -41.07,-0.308 -56.27,-0.609 l 0,7.66 c 24.98,1.879 17.5,19.84 -23.27,125.16 l -167.066,0 z m 150.186,44.899 -0.52,2.109 c -52.98,142.301 -59.32,159.402 -63.85,175.973 l -0.9,0 c -4.97,-16.481 -11.86,-33.793 -67.268,-175.973 l -0.504,-2.109 133.042,0"
         transform="matrix(0.125,0,0,-0.125,174.64286,629.10078)" />
      <path
         id="path2917"
         style="fill:#ffffff;fill-opacity:1;fill-rule:nonzero;stroke:none"
         d="M 1378.87,441.781 C 1336.46,336.59 1329.38,318.5 1354.72,316.621 l 0,-7.66 c -15.19,0.301 -33.14,0.609 -52.01,0.609 -22.24,0 -38.14,-0.308 -48.69,-0.609 l 0,7.66 c 18.3,1.641 27.02,19.68 94.36,184.27 l 114.26,280.449 9.24,0 110.67,-280.86 c 64.99,-163.8 72.72,-181.781 90.54,-183.859 l 0,-7.66 c -9.58,0.301 -25.1,0.609 -47.6,0.609 -20.54,0 -41.08,-0.308 -56.27,-0.609 l 0,7.66 c 24.97,1.879 17.5,19.84 -23.26,125.16 l -167.09,0 z m 150.19,44.899 -0.51,2.109 c -52.98,142.301 -59.31,159.402 -63.86,175.973 l -0.9,0 c -4.96,-16.481 -11.85,-33.793 -67.25,-175.973 l -0.5,-2.109 133.02,0"
         transform="matrix(0.125,0,0,-0.125,174.64286,629.10078)" />
      <path
         id="path2919"
         style="fill:#ffffff;fill-opacity:1;fill-rule:nonzero;stroke:none"
         d="m 1822.73,727.691 -90.34,0 c -32.41,0 -43.07,-5.691 -48.43,-30.929 l -7.87,0 c 0,26.168 -0.08,52.609 -0.08,77.027 47.87,-0.309 105.51,-0.398 148.63,-0.398 l 51.11,0 c 48.39,0 106.14,0.089 148.84,0.398 0,-24.488 -0.1,-51.07 -0.1,-77.027 l -7.77,0 c -4.98,25.449 -17,30.929 -48.14,30.929 l -90.34,0 0,-227.402 c 0,-164.051 0.08,-182.269 26.76,-183.769 l 0,-7.559 c -14.53,0.301 -33.63,0.609 -53.84,0.609 -21.8,0 -41.66,-0.308 -54.68,-0.609 l 0,7.789 c 26.25,2.41 26.25,19.602 26.25,183.539 l 0,227.402"
         transform="matrix(0.125,0,0,-0.125,174.64286,629.10078)" />
      <path
         id="path2921"
         style="fill:#ffffff;fill-opacity:1;fill-rule:nonzero;stroke:none"
         d="m 2092.5,593.27 c 0,148.91 0,168.39 -25.07,172.57 l 0,8.148 c 13.69,-0.289 30.75,-0.578 52.87,-0.578 20.07,0 35.69,0.289 51.7,0.578 l 0,-7.648 c -23.4,-3.988 -23.92,-24.602 -23.92,-163.078 l 0,-40.571 1.07,0.071 97.19,117.058 c 57.59,68.739 66.75,83.981 47.6,86.821 l 0,7.347 c 20.51,-0.289 36.19,-0.578 53.71,-0.578 18.44,0 36.01,0.289 50.02,0.578 l 0,-7.566 c -19.33,-2.16 -32.46,-20.82 -92.04,-89.832 l -105.77,-124.059 109.96,-128.5 c 74.84,-88.332 90.62,-104.23 109.47,-107.41 l 0,-7.66 c -14.97,0.301 -33.26,0.609 -54.52,0.609 -20.58,0 -38.4,-0.308 -58.73,-0.609 l 0,7.269 c 23.14,2.161 6.19,21.942 -62.68,104.52 l -94.3,112.461 -0.98,-0.09 0,-44.68 c 0,-151.851 0.09,-167.312 26.39,-171.921 l 0,-7.559 c -17.47,0.301 -32.11,0.609 -52.44,0.609 -21.2,0 -42.58,-0.308 -55.57,-0.609 l 0,7.879 c 26.04,4.461 26.04,19.84 26.04,183.449 l 0,92.981"
         transform="matrix(0.125,0,0,-0.125,174.64286,629.10078)" />
      <path
         id="path2923"
         style="fill:#ffffff;fill-opacity:1;fill-rule:nonzero;stroke:none"
         d="m 2530.87,500.391 c 0,-163.629 0,-180.84 26.64,-183.871 l 0,-7.559 c -14.41,0.301 -33.71,0.609 -54.22,0.609 -23.43,0 -40.6,-0.308 -54.05,-0.609 l 0,7.879 c 26.05,2.711 26.05,19.84 26.05,183.199 l 0,93.231 c 0,153.011 0,170.3 -25.07,172.57 l 0,8.148 c 12.71,-0.289 30.76,-0.578 51.98,-0.578 20.11,0 39.88,0.289 52.84,0.578 l 0,-7.867 c -24.07,-2.551 -24.17,-19.75 -24.17,-172.762 l 0,-92.968"
         transform="matrix(0.125,0,0,-0.125,174.64286,629.10078)" />
      <path
         id="path2925"
         style="fill:#ffffff;fill-opacity:1;fill-rule:nonzero;stroke:none"
         d="m 2745.53,727.691 -90.36,0 c -32.41,0 -43.07,-5.691 -48.42,-30.929 l -7.87,0 c 0,26.168 -0.08,52.609 -0.08,77.027 47.87,-0.309 105.51,-0.398 148.62,-0.398 l 51.12,0 c 48.38,0 106.14,0.089 148.83,0.398 0,-24.488 -0.09,-51.07 -0.09,-77.027 l -7.78,0 c -4.98,25.449 -17,30.929 -48.12,30.929 l -90.35,0 0,-227.402 c 0,-164.051 0.08,-182.269 26.76,-183.769 l 0,-7.559 c -14.54,0.301 -33.63,0.609 -53.84,0.609 -21.8,0 -41.66,-0.308 -54.68,-0.609 l 0,7.789 c 26.26,2.41 26.26,19.602 26.26,183.539 l 0,227.402"
         transform="matrix(0.125,0,0,-0.125,174.64286,629.10078)" />
    </g>
  </g>
  <g
     inkscape:groupmode="layer"
     id="layer5"
     inkscape:label="Restore Order"
     style="display:none"
     transform="translate(0,1107.675)"
     sodipodi:insensitive="true">
    <g
       transform="matrix(0.125,0,0,-0.125,174.64286,629.10078)"
       style="display:inline"
       id="g3116">
      <path
         id="path2861"
         style="fill:#ffffff;fill-opacity:1;fill-rule:nonzero;stroke:none"
         d="m 561.816,226.539 c 7.493,1.551 18.387,2.563 28.438,2.563 15.84,0 26.215,-3.082 33.379,-9.532 5.609,-4.941 9.023,-12.781 9.023,-21.789 0,-14.992 -9.711,-25.031 -21.625,-29.121 l 0,-0.519 c 8.676,-3.051 13.957,-11.231 16.856,-23.161 3.746,-16.011 6.468,-27.07 8.675,-31.48 l -15.324,0 c -1.875,3.23 -4.422,13.09 -7.488,27.391 -3.406,15.839 -9.707,21.808 -23.152,22.308 l -13.973,0 0,-49.699 -14.809,0 0,113.039 z m 14.809,-52.09 15.16,0 c 15.836,0 25.875,8.672 25.875,21.789 0,14.801 -10.722,21.282 -26.387,21.282 -7.148,0 -12.085,-0.68 -14.648,-1.348 l 0,-41.723" />
      <path
         id="path2863"
         style="fill:#ffffff;fill-opacity:1;fill-rule:nonzero;stroke:none"
         d="m 661.934,152.141 c 0.339,-20.262 13.101,-28.61 28.093,-28.61 10.727,0 17.368,1.879 22.809,4.098 l 2.734,-10.57 c -5.281,-2.379 -14.476,-5.27 -27.586,-5.27 -25.207,0 -40.527,16.852 -40.527,41.531 0,25.032 14.816,44.629 38.816,44.629 26.907,0 33.899,-23.679 33.899,-38.84 0,-3.05 -0.172,-5.437 -0.52,-7.14 l -57.718,0.172 z m 43.757,10.73 c 0.172,9.359 -3.921,24.348 -20.601,24.348 -15.324,0 -21.793,-13.969 -22.985,-24.348 l 43.586,0" />
      <path
         id="path2865"
         style="fill:#ffffff;fill-opacity:1;fill-rule:nonzero;stroke:none"
         d="m 736.68,128.641 c 4.609,-2.731 12.437,-5.789 19.929,-5.789 10.727,0 15.836,5.269 15.836,12.269 0,7.141 -4.261,11.059 -15.16,15.149 -14.98,5.441 -21.965,13.449 -21.965,23.332 0,13.277 10.895,24.179 28.434,24.179 8.348,0 15.664,-2.222 20.101,-5.101 l -3.578,-10.739 c -3.234,1.868 -9.191,4.758 -16.863,4.758 -8.852,0 -13.625,-5.109 -13.625,-11.23 0,-6.989 4.773,-10.047 15.5,-14.129 14.129,-5.281 21.629,-12.442 21.629,-24.879 0,-14.621 -11.41,-24.859 -30.652,-24.859 -9.02,0 -17.371,2.386 -23.157,5.789 l 3.571,11.25" />
      <path
         id="path2867"
         style="fill:#ffffff;fill-opacity:1;fill-rule:nonzero;stroke:none"
         d="m 824.203,215.648 0,-19.757 21.449,0 0,-11.403 -21.449,0 0,-44.449 c 0,-10.219 2.899,-16.008 11.242,-16.008 4.082,0 6.457,0.348 8.68,1.02 l 0.684,-11.391 c -2.907,-1.019 -7.5,-2.058 -13.286,-2.058 -6.988,0 -12.597,2.386 -16.179,6.308 -4.078,4.61 -5.789,11.91 -5.789,21.629 l 0,44.949 -12.77,0 0,11.403 12.77,0 0,15.148 14.648,4.609" />
      <path
         id="path2869"
         style="fill:#ffffff;fill-opacity:1;fill-rule:nonzero;stroke:none"
         d="m 895.039,111.602 c -22.133,0 -39.504,16.359 -39.504,42.398 0,27.59 18.215,43.781 40.867,43.781 23.664,0 39.676,-17.199 39.676,-42.23 0,-30.672 -21.293,-43.949 -40.867,-43.949 l -0.172,0 z m 0.512,11.25 c 14.297,0 25.035,13.449 25.035,32.168 0,13.968 -6.988,31.511 -24.703,31.511 -17.539,0 -25.195,-16.34 -25.195,-32.011 0,-18.059 10.218,-31.668 24.695,-31.668 l 0.168,0" />
      <path
         id="path2871"
         style="fill:#ffffff;fill-opacity:1;fill-rule:nonzero;stroke:none"
         d="m 955.152,170.191 c 0,9.7 -0.175,18.039 -0.687,25.7 l 13.117,0 0.688,-16.161 0.503,0 c 3.75,11.051 12.946,18.051 22.989,18.051 1.539,0 2.726,-0.179 4.09,-0.511 l 0,-13.981 c -1.707,0.172 -3.235,0.352 -5.278,0.352 -10.562,0 -18.051,-8.012 -20.101,-19.071 -0.328,-2.218 -0.5,-4.609 -0.5,-7.16 l 0,-43.91 -14.996,0 0.175,56.691" />
      <path
         id="path2873"
         style="fill:#ffffff;fill-opacity:1;fill-rule:nonzero;stroke:none"
         d="m 1018.15,152.141 c 0.35,-20.262 13.11,-28.61 28.1,-28.61 10.73,0 17.37,1.879 22.81,4.098 l 2.74,-10.57 c -5.29,-2.379 -14.48,-5.27 -27.6,-5.27 -25.2,0 -40.52,16.852 -40.52,41.531 0,25.032 14.82,44.629 38.82,44.629 26.9,0 33.9,-23.679 33.9,-38.84 0,-3.05 -0.18,-5.437 -0.53,-7.14 l -57.72,0.172 z m 43.77,10.73 c 0.16,9.359 -3.93,24.348 -20.61,24.348 -15.32,0 -21.79,-13.969 -22.98,-24.348 l 43.59,0" />
      <path
         id="path2875"
         style="fill:#ffffff;fill-opacity:1;fill-rule:nonzero;stroke:none"
         d="m 1164.59,111.602 c -22.13,0 -39.5,16.359 -39.5,42.398 0,27.59 18.21,43.781 40.86,43.781 23.67,0 39.68,-17.199 39.68,-42.23 0,-30.672 -21.28,-43.949 -40.87,-43.949 l -0.17,0 z m 0.51,11.25 c 14.3,0 25.04,13.449 25.04,32.168 0,13.968 -6.99,31.511 -24.71,31.511 -17.53,0 -25.19,-16.34 -25.19,-32.011 0,-18.059 10.22,-31.668 24.7,-31.668 l 0.16,0" />
      <path
         id="path2877"
         style="fill:#ffffff;fill-opacity:1;fill-rule:nonzero;stroke:none"
         d="m 1224.7,170.191 c 0,9.7 -0.17,18.039 -0.68,25.7 l 13.11,0 0.69,-16.161 0.5,0 c 3.76,11.051 12.94,18.051 22.99,18.051 1.54,0 2.72,-0.179 4.08,-0.511 l 0,-13.981 c -1.7,0.172 -3.24,0.352 -5.27,0.352 -10.56,0 -18.04,-8.012 -20.1,-19.071 -0.33,-2.218 -0.5,-4.609 -0.5,-7.16 l 0,-43.91 -14.99,0 0.17,56.691" />
      <path
         id="path2879"
         style="fill:#ffffff;fill-opacity:1;fill-rule:nonzero;stroke:none"
         d="m 1350.37,234.391 0,-99.621 c 0,-7.329 0.16,-15.68 0.68,-21.27 l -13.45,0 -0.69,14.289 -0.34,0 c -4.6,-9.199 -14.47,-16.187 -27.94,-16.187 -19.91,0 -35.41,16.878 -35.41,41.89 -0.17,27.598 17.03,44.289 36.96,44.289 12.77,0 21.28,-5.949 24.86,-12.429 l 0.34,0 0,49.039 14.99,0 z m -14.99,-72.039 c 0,2.027 -0.17,4.418 -0.68,6.48 -2.22,9.348 -10.38,17.199 -21.61,17.199 -15.51,0 -24.71,-13.64 -24.71,-31.679 0,-16.84 8.34,-30.653 24.35,-30.653 10.04,0 19.24,6.813 21.97,17.871 0.51,2.059 0.68,4.09 0.68,6.481 l 0,14.301" />
      <path
         id="path2881"
         style="fill:#ffffff;fill-opacity:1;fill-rule:nonzero;stroke:none"
         d="m 1383.75,152.141 c 0.34,-20.262 13.1,-28.61 28.1,-28.61 10.71,0 17.37,1.879 22.8,4.098 l 2.73,-10.57 c -5.28,-2.379 -14.47,-5.27 -27.58,-5.27 -25.21,0 -40.52,16.852 -40.52,41.531 0,25.032 14.81,44.629 38.82,44.629 26.9,0 33.88,-23.679 33.88,-38.84 0,-3.05 -0.16,-5.437 -0.51,-7.14 l -57.72,0.172 z m 43.75,10.73 c 0.18,9.359 -3.93,24.348 -20.6,24.348 -15.32,0 -21.78,-13.969 -22.98,-24.348 l 43.58,0" />
      <path
         id="path2883"
         style="fill:#ffffff;fill-opacity:1;fill-rule:nonzero;stroke:none"
         d="m 1460.7,170.191 c 0,9.7 -0.17,18.039 -0.68,25.7 l 13.11,0 0.69,-16.161 0.5,0 c 3.75,11.051 12.95,18.051 22.99,18.051 1.53,0 2.73,-0.179 4.08,-0.511 l 0,-13.981 c -1.7,0.172 -3.24,0.352 -5.27,0.352 -10.56,0 -18.05,-8.012 -20.1,-19.071 -0.34,-2.218 -0.49,-4.609 -0.49,-7.16 l 0,-43.91 -15,0 0.17,56.691" />
      <path
         id="path2885"
         style="fill:#ffffff;fill-opacity:1;fill-rule:nonzero;stroke:none"
         d="m 1570.36,215.648 0,-19.757 21.46,0 0,-11.403 -21.46,0 0,-44.449 c 0,-10.219 2.9,-16.008 11.24,-16.008 4.09,0 6.47,0.348 8.67,1.02 l 0.71,-11.391 c -2.91,-1.019 -7.51,-2.058 -13.3,-2.058 -6.99,0 -12.6,2.386 -16.18,6.308 -4.08,4.61 -5.78,11.91 -5.78,21.629 l 0,44.949 -12.77,0 0,11.403 12.77,0 0,15.148 14.64,4.609" />
      <path
         id="path2887"
         style="fill:#ffffff;fill-opacity:1;fill-rule:nonzero;stroke:none"
         d="m 1641.2,111.602 c -22.14,0 -39.51,16.359 -39.51,42.398 0,27.59 18.21,43.781 40.87,43.781 23.67,0 39.68,-17.199 39.68,-42.23 0,-30.672 -21.29,-43.949 -40.87,-43.949 l -0.17,0 z m 0.51,11.25 c 14.31,0 25.03,13.449 25.03,32.168 0,13.968 -6.98,31.511 -24.7,31.511 -17.54,0 -25.19,-16.34 -25.19,-32.011 0,-18.059 10.22,-31.668 24.69,-31.668 l 0.17,0" />
      <path
         id="path2889"
         style="fill:#ffffff;fill-opacity:1;fill-rule:nonzero;stroke:none"
         d="m 1742.69,195.891 17.87,-48.692 c 2.05,-5.461 4.1,-11.918 5.46,-16.859 l 0.34,0 c 1.53,4.941 3.24,11.23 5.27,17.191 l 16.35,48.36 15.83,0 -22.48,-58.731 c -10.71,-28.269 -18.04,-42.7498 -28.25,-51.7694 -7.5,-6.289 -14.66,-8.8711 -18.39,-9.5312 l -3.75,12.6015 c 3.75,1.0196 8.69,3.3985 13.1,7.3086 4.09,3.2305 9.04,9.0195 12.61,16.6795 0.67,1.539 1.18,2.563 1.18,3.59 0,0.852 -0.34,2.043 -1.18,3.742 l -30.31,76.11 16.35,0" />
      <path
         id="path2891"
         style="fill:#ffffff;fill-opacity:1;fill-rule:nonzero;stroke:none"
         d="m 1849.28,111.602 c -22.14,0 -39.51,16.359 -39.51,42.398 0,27.59 18.22,43.781 40.86,43.781 23.68,0 39.68,-17.199 39.68,-42.23 0,-30.672 -21.29,-43.949 -40.86,-43.949 l -0.17,0 z m 0.51,11.25 c 14.29,0 25.03,13.449 25.03,32.168 0,13.968 -6.99,31.511 -24.69,31.511 -17.54,0 -25.21,-16.34 -25.21,-32.011 0,-18.059 10.22,-31.668 24.7,-31.668 l 0.17,0" />
      <path
         id="path2893"
         style="fill:#ffffff;fill-opacity:1;fill-rule:nonzero;stroke:none"
         d="m 1978.17,135.969 c 0,-8.528 0.17,-16.02 0.69,-22.469 l -13.29,0 -0.84,13.441 -0.35,0 c -3.74,-6.64 -12.59,-15.339 -27.25,-15.339 -12.93,0 -28.43,7.328 -28.43,36.109 l 0,48.18 14.99,0 0,-45.45 c 0,-15.671 4.94,-26.41 18.38,-26.41 10.06,0 17.04,7 19.77,13.809 0.85,2.031 1.35,4.75 1.35,7.66 l 0,50.391 14.98,0 0,-59.922" />
      <path
         id="path2895"
         style="fill:#ffffff;fill-opacity:1;fill-rule:nonzero;stroke:none"
         d="m 2003.19,170.191 c 0,9.7 -0.16,18.039 -0.68,25.7 l 13.12,0 0.69,-16.161 0.51,0 c 3.74,11.051 12.94,18.051 22.98,18.051 1.54,0 2.73,-0.179 4.09,-0.511 l 0,-13.981 c -1.7,0.172 -3.24,0.352 -5.28,0.352 -10.55,0 -18.05,-8.012 -20.09,-19.071 -0.34,-2.218 -0.51,-4.609 -0.51,-7.16 l 0,-43.91 -14.99,0 0.16,56.691" />
      <path
         id="path2897"
         style="fill:#ffffff;fill-opacity:1;fill-rule:nonzero;stroke:none"
         d="m 2163.77,135.969 c 0,-8.528 0.17,-16.02 0.68,-22.469 l -13.28,0 -0.85,13.441 -0.34,0 c -3.74,-6.64 -12.6,-15.339 -27.25,-15.339 -12.94,0 -28.43,7.328 -28.43,36.109 l 0,48.18 14.99,0 0,-45.45 c 0,-15.671 4.94,-26.41 18.39,-26.41 10.04,0 17.03,7 19.74,13.809 0.86,2.031 1.38,4.75 1.38,7.66 l 0,50.391 14.97,0 0,-59.922" />
      <path
         id="path2899"
         style="fill:#ffffff;fill-opacity:1;fill-rule:nonzero;stroke:none"
         d="m 2188.62,173.602 c 0,8.668 -0.16,15.48 -0.67,22.289 l 13.27,0 0.87,-13.45 0.33,0 c 4.08,7.661 13.62,15.34 27.24,15.34 11.41,0 29.13,-6.832 29.13,-35.082 l 0,-49.199 -14.99,0 0,47.512 c 0,13.258 -4.94,24.508 -19.08,24.508 -9.7,0 -17.37,-6.989 -20.08,-15.329 -0.68,-1.882 -1.02,-4.601 -1.02,-6.992 l 0,-49.699 -15,0 0,60.102" />
      <path
         id="path2901"
         style="fill:#ffffff;fill-opacity:1;fill-rule:nonzero;stroke:none"
         d="m 2290.28,211.039 c -5.62,0 -9.35,4.449 -9.35,9.711 0,5.27 3.9,9.551 9.69,9.551 5.8,0 9.54,-4.281 9.54,-9.551 0,-5.262 -3.74,-9.711 -9.71,-9.711 l -0.17,0 z m -7.15,-97.539 0,82.391 15,0 0,-82.391 -15,0" />
      <path
         id="path2903"
         style="fill:#ffffff;fill-opacity:1;fill-rule:nonzero;stroke:none"
         d="m 2328.77,195.891 16.17,-46.129 c 2.73,-7.672 4.94,-14.481 6.65,-21.282 l 0.51,0 c 1.86,6.801 4.25,13.61 6.98,21.282 l 16,46.129 15.66,0 -32.33,-82.391 -14.32,0 -31.33,82.391 16.01,0" />
      <path
         id="path2905"
         style="fill:#ffffff;fill-opacity:1;fill-rule:nonzero;stroke:none"
         d="m 2411.52,152.141 c 0.34,-20.262 13.11,-28.61 28.1,-28.61 10.72,0 17.36,1.879 22.81,4.098 l 2.74,-10.57 c -5.29,-2.379 -14.49,-5.27 -27.6,-5.27 -25.2,0 -40.52,16.852 -40.52,41.531 0,25.032 14.81,44.629 38.82,44.629 26.9,0 33.89,-23.679 33.89,-38.84 0,-3.05 -0.18,-5.437 -0.52,-7.14 l -57.72,0.172 z m 43.76,10.73 c 0.18,9.359 -3.92,24.348 -20.6,24.348 -15.32,0 -21.79,-13.969 -22.98,-24.348 l 43.58,0" />
      <path
         id="path2907"
         style="fill:#ffffff;fill-opacity:1;fill-rule:nonzero;stroke:none"
         d="m 2488.49,170.191 c 0,9.7 -0.18,18.039 -0.7,25.7 l 13.12,0 0.69,-16.161 0.51,0 c 3.74,11.051 12.94,18.051 23,18.051 1.52,0 2.71,-0.179 4.07,-0.511 l 0,-13.981 c -1.7,0.172 -3.23,0.352 -5.27,0.352 -10.56,0 -18.06,-8.012 -20.1,-19.071 -0.33,-2.218 -0.5,-4.609 -0.5,-7.16 l 0,-43.91 -15,0 0.18,56.691" />
      <path
         id="path2909"
         style="fill:#ffffff;fill-opacity:1;fill-rule:nonzero;stroke:none"
         d="m 2541.95,128.641 c 4.6,-2.731 12.43,-5.789 19.93,-5.789 10.72,0 15.83,5.269 15.83,12.269 0,7.141 -4.25,11.059 -15.15,15.149 -14.98,5.441 -21.97,13.449 -21.97,23.332 0,13.277 10.89,24.179 28.44,24.179 8.34,0 15.66,-2.222 20.1,-5.101 l -3.57,-10.739 c -3.25,1.868 -9.2,4.758 -16.87,4.758 -8.86,0 -13.63,-5.109 -13.63,-11.23 0,-6.989 4.77,-10.047 15.5,-14.129 14.13,-5.281 21.64,-12.442 21.64,-24.879 0,-14.621 -11.42,-24.859 -30.66,-24.859 -9.02,0 -17.37,2.386 -23.15,5.789 l 3.56,11.25" />
      <path
         id="path2911"
         style="fill:#ffffff;fill-opacity:1;fill-rule:nonzero;stroke:none"
         d="m 2619.94,152.141 c 0.33,-20.262 13.12,-28.61 28.1,-28.61 10.72,0 17.37,1.879 22.81,4.098 l 2.72,-10.57 c -5.28,-2.379 -14.46,-5.27 -27.57,-5.27 -25.22,0 -40.53,16.852 -40.53,41.531 0,25.032 14.8,44.629 38.82,44.629 26.9,0 33.88,-23.679 33.88,-38.84 0,-3.05 -0.16,-5.437 -0.5,-7.14 l -57.73,0.172 z m 43.76,10.73 c 0.18,9.359 -3.91,24.348 -20.6,24.348 -15.32,0 -21.79,-13.969 -22.99,-24.348 l 43.59,0" />
    </g>
  </g>
</svg>
